<svg version="1.1" id="Layer_1" xmlns="http://www.w3.org/2000/svg" xmlns:xlink="http://www.w3.org/1999/xlink" x="0px" y="0px" viewBox="0 0 712 709" style="enable-background:new 0 0 712 709;" xml:space="preserve" class="h-6 w-auto fill-current logo logo--small">
                                    <style type="text/css">
                                        .st0 {
                                            clip-path: url(#SVGID_2_)
                                        }
                                    </style>
                                    <path d="M354.2,62.8C193.1,62.8,62,193.9,62,355c0,161.1,131.1,292.2,292.3,292.2S646.5,516.2,646.5,355
C646.5,193.9,515.4,62.8,354.2,62.8 M354.2,700.8C163.6,700.8,8.5,545.7,8.5,355C8.5,164.4,163.6,9.3,354.2,9.3
C544.9,9.3,700,164.4,700,355C700,545.7,544.9,700.8,354.2,700.8"/>
                                    <g>
                                        <defs>
                                            <circle id="SVGID_1_" cx="356" cy="354.5" r="288"/>
                                        </defs>
                                        <clipPath id="SVGID_2_">
                                            <use xlink:href="#SVGID_1_" style="overflow:visible;"/>
                                        </clipPath>
                                        <g class="st0">
                                            <path class="logo__icon logo__icon--first" d="M292,358.8h105.5l-52.8-141.7L292,358.8z M418,413H271.5l-32.2,87h-62L312,153.6h67.9l134.8,346.4h-64L418,413z"/>
                                            <path class="logo__icon logo__icon--last" d="M292,358.8h105.5l-52.8-141.7L292,358.8z M418,413H271.5l-32.2,87h-62L312,153.6h67.9l134.8,346.4h-64L418,413z"/>
                                        </g>
                                    </g>
                                </svg>